# xmcd CD database file
# Copyright (C) 1995-1998 Ti Kan
#
# Track frame offsets:
#	150
#	13071
#	26201
#	38196
#	51587
#	65996
#	80673
#	93866
#	106397
#	118287
#
# Disc length: 1767 seconds
#
# Revision: 3
# Processed by: cddbd v1.4PL0 Copyright (c) Steve Scherf et al.
# Submitted via: CDex 1.30Release
#
DISCID=9106e50a
DTITLE=Joey Bishop - Joey Bishop Sings Country Western
DYEAR=1900
DGENRE=Country
TTITLE0=It Keeps Right On A Hurtin'
TTITLE1=Born to Lose
TTITLE2=Take These Chains From My Heart
TTITLE3=You Win Again
TTITLE4=Heartbreak Avenue
TTITLE5=Listen, They.re Playing My Song
TTITLE6=Your The Reason I'm Living
TTITLE7=If I Didn't Love You
TTITLE8=Your Cheatin' Heart
TTITLE9=Cold, Cold Heart
EXTD=YEAR: Unkn ID3G:   2
EXTT0=
EXTT1=
EXTT2=
EXTT3=
EXTT4=
EXTT5=
EXTT6=
EXTT7=
EXTT8=
EXTT9=
PLAYORDER=
